<?xml version="1.0" encoding="iso-8859-1"?>
<!-- Generator: Adobe Illustrator 22.1.0, SVG Export Plug-In . SVG Version: 6.00 Build 0)  -->
<svg version="1.1" id="Layer_1" xmlns="http://www.w3.org/2000/svg" xmlns:xlink="http://www.w3.org/1999/xlink" x="0px" y="0px"
	 viewBox="0 0 5760 776" style="enable-background:new 0 0 5760 776;" xml:space="preserve">
<metadata><?xpacket begin="﻿" id="W5M0MpCehiHzreSzNTczkc9d"?>
<x:xmpmeta xmlns:x="adobe:ns:meta/" x:xmptk="Adobe XMP Core 5.6-c143 79.161356, 2017/09/07-01:11:22        ">
   <rdf:RDF xmlns:rdf="http://www.w3.org/1999/02/22-rdf-syntax-ns#">
      <rdf:Description rdf:about=""/>
   </rdf:RDF>
</x:xmpmeta>
                                                                                                    
                                                                                                    
                                                                                                    
                                                                                                    
                                                                                                    
                                                                                                    
                                                                                                    
                                                                                                    
                                                                                                    
                                                                                                    
                                                                                                    
                                                                                                    
                                                                                                    
                                                                                                    
                                                                                                    
                                                                                                    
                                                                                                    
                                                                                                    
                                                                                                    
                                                                                                    
                           
<?xpacket end="w"?></metadata>
<polygon points="478.544,166.173 409.064,166.173 409.065,604.656 635.014,604.656 635.014,539.124 478.544,539.124 "/>
<path d="M782.006,604.656h74.964l48.417-105.551h183.495l45.596,105.551h76.09l-210.44-468.541L782.006,604.656z M934.464,433.573
	l64.472-141.039l61.518,141.039H934.464z"/>
<polygon points="1692.142,465.26 1375.211,133.691 1375.212,604.656 1444.692,604.656 1444.691,303.304 1761.622,634.025 
	1761.621,166.173 1692.141,166.173 "/>
<polygon points="1987.161,604.656 2230.876,604.656 2230.876,539.124 2056.627,539.124 2056.627,397.78 2225.802,397.78 
	2225.802,332.235 2056.627,332.235 2056.626,231.705 2230.875,231.705 2230.875,166.173 1987.16,166.173 "/>
<path d="M3411.853,376.215c17.83-22.4,26.865-49.517,26.865-80.594c0-39.807-14.426-72.314-42.894-96.636
	c-25.765-21.778-68.049-32.812-125.673-32.812h-78.779l0.001,438.484h69.466l0-177.892h8.849l124.149,177.892h85.045
	l-135.038-185.893C3371.741,412.166,3394.605,397.86,3411.853,376.215z M3260.839,365.736l0-134.032h21.42
	c59.677,0,88.688,21.195,88.688,64.764c0,46.602-29.845,69.268-91.231,69.268H3260.839z"/>
<polygon points="3868.427,166.173 3769.91,337.852 3671.698,166.173 3591.727,166.173 3735.031,414.975 3735.032,604.656 
	3804.498,604.656 3804.246,415.955 3948.358,166.173 "/>
<path d="M4009.171,604.656h74.977l48.404-105.551h183.521l45.596,105.551h76.077l-210.44-468.541L4009.171,604.656z
	 M4161.654,433.573l64.472-141.039l61.492,141.039H4161.654z"/>
<polygon points="4902.886,462.76 4585.942,131.191 4585.943,602.156 4655.436,602.156 4655.435,300.804 4972.353,631.524 
	4972.352,163.673 4902.885,163.673 "/>
<polygon points="5134.805,163.673 5134.805,229.205 5256.195,229.205 5256.195,602.156 5325.688,602.156 5325.688,229.205 
	5445.813,229.205 5445.813,163.673 "/>
<path d="M2944.355,368.055c22.586-21.473,34.018-47.821,34.018-78.342c0-17.261-3.749-34.574-11.154-51.437
	c-7.206-16.704-17.115-30.839-29.474-42.059c-12.187-10.862-27.328-18.678-45-23.235c-17.34-4.517-40.893-6.809-70.009-6.809
	h-67.254l0.001,438.484h101.312c29.699,0,54.789-2.769,74.606-8.24c18.228-5.696,34.879-16.002,49.477-30.587
	c24.295-23.725,36.614-53.173,36.614-87.535c0-26.163-6.928-49.464-20.599-69.215
	C2983.977,389.991,2966.319,376.201,2944.355,368.055z M2824.962,230.301h21.142c21.539,0,38.137,5.193,49.344,15.406
	c11.154,10.174,16.823,25.354,16.823,45.132c0,20.36-5.537,35.939-16.439,46.298c-10.916,10.372-28.507,15.645-52.272,15.645
	h-18.599V230.301z M2927.585,522.115c-13.446,11.286-34.998,17.009-64.035,17.009h-38.588l0-127.554h31.262
	c34.601,0,58.882,6.173,72.156,18.347c13.591,12.333,20.479,27.765,20.479,45.847
	C2948.859,494.416,2941.693,510.008,2927.585,522.115z"/>
</svg>
